<svg xmlns="http://www.w3.org/2000/svg" viewBox="0 0 512 512">
  <rect width="512" height="512" fill="#15803d" rx="100" />
  <path d="M256 128c-70.7 0-128 57.3-128 128 0 70.7 57.3 128 128 128s128-57.3 128-128c0-70.7-57.3-128-128-128zm0 216c-48.6 0-88-39.4-88-88s39.4-88 88-88 88 39.4 88 88-39.4 88-88 88z" fill="#ffffff" />
  <path d="M256 176c-35.3 0-64 28.7-64 64s28.7 64 64 64 64-28.7 64-64-28.7-64-64-64zm0 88c-13.2 0-24-10.8-24-24s10.8-24 24-24 24 10.8 24 24-10.8 24-24 24z" fill="#15803d" />
  <path d="M256 64v64M256 448v-64M64 256h64M448 256h-64" stroke="#ffffff" stroke-width="32" stroke-linecap="round" />
</svg>
